<svg width="24" height="24" viewBox="0 0 24 24" fill="none" xmlns="http://www.w3.org/2000/svg">
<path d="M17.8759 4.02294L16.1944 2.34142C16.0684 2.21543 16.1576 2 16.3358 2H21.2412C21.3516 2 21.4412 2.08954 21.4412 2.2V7.10539C21.4412 7.28357 21.2258 7.37281 21.0998 7.24681L19.4406 5.58765L11.5143 13.448C11.4399 13.5217 11.3212 13.5256 11.2422 13.4568L7.64846 10.3292C7.56773 10.2589 7.446 10.2646 7.37224 10.3422L4.7356 13.1143C4.69784 13.154 4.64546 13.1765 4.59068 13.1765H3.2C3.08954 13.1765 3 13.0869 3 12.9765V11.5848C3 11.5306 3.022 11.4787 3.06095 11.441L7.30713 7.33391C7.38091 7.26254 7.49675 7.25862 7.57519 7.32484L11.3824 10.5388" fill="#008CB5"/>
<path d="M12.5 14.2904L14.1765 12.614L15.8529 10.9375V20.9963H12.5V14.2904Z" fill="#008CB5"/>
<path d="M11.9414 14.7287V14.7287C11.6425 15.096 11.0914 15.1242 10.7566 14.7893L9.70646 13.739L8.02999 12.0625V21.0037H11.9414V14.7287Z" fill="#008CB5"/>
<path d="M3.55859 14.7287V14.7287C3.85755 15.0961 4.40862 15.1242 4.74352 14.7893L5.79374 13.739L7.47036 12.0625V21.0037H3.55859V14.7287Z" fill="#008CB5"/>
<path d="M16.4121 10.3842L18.6474 8.1489L19.4236 7.37267C19.5496 7.24668 19.7651 7.33591 19.7651 7.51409V21.0018H16.4121V10.3842Z" fill="#008CB5"/>
</svg>
