<svg width="20" height="20" viewBox="0 0 20 20" fill="none" xmlns="http://www.w3.org/2000/svg">
<g clip-path="url(#clip0_2347_1289)">
<path d="M19.9499 10.9969C19.7606 12.88 19.0408 14.6707 17.8742 16.1609C16.7076 17.6512 15.142 18.7798 13.3595 19.4156C11.5769 20.0514 9.65047 20.1682 7.80409 19.7527C5.95772 19.3371 4.26718 18.4061 2.92893 17.0678C1.59069 15.7296 0.659671 14.039 0.244081 12.1926C-0.17151 10.3463 -0.0546137 8.41986 0.581186 6.63729C1.21698 4.85471 2.34558 3.28915 3.83583 2.12254C5.32607 0.955926 7.11678 0.236158 8.99986 0.046875V10.9969H19.9499ZM19.8699 8.39687H11.5999V0.126875C13.6719 0.462944 15.5856 1.44252 17.0699 2.92681C18.5542 4.41111 19.5338 6.32484 19.8699 8.39687Z" fill="#008CB5"/>
</g>
<defs>
<clipPath id="clip0_2347_1289">
<rect width="20" height="20" fill="white"/>
</clipPath>
</defs>
</svg>
